<svg xmlns="http://www.w3.org/2000/svg" width="1440" height="760" viewBox="0 0 1440 760" fill="none">
  <defs>
    <linearGradient id="bg" x1="102" y1="44" x2="1310" y2="716" gradientUnits="userSpaceOnUse">
      <stop stop-color="#101A30"/>
      <stop offset="1" stop-color="#234672"/>
    </linearGradient>
    <radialGradient id="glowCool" cx="0" cy="0" r="1" gradientUnits="userSpaceOnUse" gradientTransform="translate(1208 118) rotate(123.12) scale(308 294)">
      <stop stop-color="#5CC8FF" stop-opacity="0.22"/>
      <stop offset="1" stop-color="#5CC8FF" stop-opacity="0"/>
    </radialGradient>
    <radialGradient id="glowWarm" cx="0" cy="0" r="1" gradientUnits="userSpaceOnUse" gradientTransform="translate(228 602) rotate(14.1) scale(332 252)">
      <stop stop-color="#FF9B5E" stop-opacity="0.18"/>
      <stop offset="1" stop-color="#FF9B5E" stop-opacity="0"/>
    </radialGradient>
    <linearGradient id="chipBlue" x1="0" y1="0" x2="96" y2="0" gradientUnits="userSpaceOnUse">
      <stop stop-color="#274B80"/>
      <stop offset="1" stop-color="#20395F"/>
    </linearGradient>
    <linearGradient id="chipTeal" x1="0" y1="0" x2="116" y2="0" gradientUnits="userSpaceOnUse">
      <stop stop-color="#0F6B70"/>
      <stop offset="1" stop-color="#164B55"/>
    </linearGradient>
    <linearGradient id="chipGold" x1="0" y1="0" x2="108" y2="0" gradientUnits="userSpaceOnUse">
      <stop stop-color="#83561E"/>
      <stop offset="1" stop-color="#624015"/>
    </linearGradient>
    <linearGradient id="accent" x1="1080" y1="222" x2="1306" y2="392" gradientUnits="userSpaceOnUse">
      <stop stop-color="#72D3FF"/>
      <stop offset="0.54" stop-color="#57A7FF"/>
      <stop offset="1" stop-color="#9A6BFF"/>
    </linearGradient>
    <linearGradient id="warm" x1="1110" y1="284" x2="1288" y2="430" gradientUnits="userSpaceOnUse">
      <stop stop-color="#FFB35E"/>
      <stop offset="1" stop-color="#FF6B5E"/>
    </linearGradient>
  </defs>
  <rect width="1440" height="760" rx="32" fill="url(#bg)"/>
  <rect width="1440" height="760" rx="32" fill="url(#glowCool)"/>
  <rect width="1440" height="760" rx="32" fill="url(#glowWarm)"/>
  <circle cx="1262" cy="132" r="122" fill="#284C79" fill-opacity="0.52"/>
  <circle cx="206" cy="620" r="114" fill="#2D2D2D" fill-opacity="0.48"/>
  <path d="M0 690C132 630 308 594 472 644C610 686 760 710 928 676C1102 642 1264 608 1440 622V760H0V690Z" fill="#17335A"/>
  <g opacity="0.16" stroke="#5A7496">
    <path d="M92 110H1348"/>
    <path d="M92 194H1348"/>
    <path d="M92 278H1348"/>
    <path d="M92 362H1348"/>
    <path d="M92 446H1348"/>
    <path d="M92 530H1348"/>
    <path d="M92 614H1348"/>
    <path d="M188 70V658"/>
    <path d="M372 70V658"/>
    <path d="M556 70V658"/>
    <path d="M740 70V658"/>
    <path d="M924 70V658"/>
    <path d="M1108 70V658"/>
    <path d="M1292 70V658"/>
  </g>
  <rect x="228" y="170" width="820" height="298" rx="30" fill="#121E34" stroke="#3E7AA2" stroke-width="2"/>
  <text x="280" y="228" fill="#7DD3FC" font-family="Segoe UI, Arial, sans-serif" font-size="22" font-weight="700" letter-spacing="0.16em">FLASHATTENTION TILING ANALYZER</text>
  <text x="280" y="314" fill="#F8FAFC" font-family="Georgia, Times New Roman, serif" font-size="68" font-weight="700">Replay Prompt Flash</text>
  <text x="280" y="386" fill="#F8FAFC" font-family="Georgia, Times New Roman, serif" font-size="68" font-weight="700">Attention tiling.</text>
  <text x="280" y="430" fill="#D3E3FF" font-family="Segoe UI, Arial, sans-serif" font-size="25">Follow the PFA V3 API path into the host-side tiling_v2 implementation.</text>
  <text x="280" y="464" fill="#D3E3FF" font-family="Segoe UI, Arial, sans-serif" font-size="25">Expand logical groups into physical-core work, JSON, CSV, and Q x KV maps.</text>
  <rect x="280" y="506" width="126" height="38" rx="18" fill="url(#chipBlue)"/>
  <rect x="420" y="506" width="142" height="38" rx="18" fill="url(#chipBlue)"/>
  <rect x="576" y="506" width="124" height="38" rx="18" fill="url(#chipTeal)"/>
  <rect x="714" y="506" width="142" height="38" rx="18" fill="url(#chipGold)"/>
  <text x="311" y="531" fill="#DCEAFF" font-family="Segoe UI, Arial, sans-serif" font-size="17" font-weight="700">PFA V3 API</text>
  <text x="450" y="531" fill="#DCEAFF" font-family="Segoe UI, Arial, sans-serif" font-size="17" font-weight="700">tiling_v2.cpp</text>
  <text x="612" y="531" fill="#DCEAFF" font-family="Segoe UI, Arial, sans-serif" font-size="17" font-weight="700">32 cores</text>
  <text x="748" y="531" fill="#FFF0D5" font-family="Segoe UI, Arial, sans-serif" font-size="17" font-weight="700">SVG outputs</text>
  <path d="M282 578H870" stroke="#4D7EB1" stroke-width="2" stroke-dasharray="7 9"/>
  <circle cx="322" cy="578" r="10" fill="#FFC857"/>
  <circle cx="492" cy="578" r="10" fill="#61D4CF"/>
  <circle cx="662" cy="578" r="10" fill="#8CC7FF"/>
  <circle cx="832" cy="578" r="10" fill="#61D4CF"/>
  <text x="280" y="612" fill="#D6E5FF" font-family="Segoe UI, Arial, sans-serif" font-size="20">api entry</text>
  <text x="431" y="612" fill="#D6E5FF" font-family="Segoe UI, Arial, sans-serif" font-size="20">host split</text>
  <text x="605" y="612" fill="#D6E5FF" font-family="Segoe UI, Arial, sans-serif" font-size="20">core replay</text>
  <text x="765" y="612" fill="#D6E5FF" font-family="Segoe UI, Arial, sans-serif" font-size="20">svg evidence</text>
  <rect x="1092" y="204" width="246" height="220" rx="24" fill="#16253F" stroke="#315C87"/>
  <text x="1122" y="250" fill="#F8FAFC" font-family="Segoe UI, Arial, sans-serif" font-size="28" font-weight="700">Per-Core View</text>
  <text x="1122" y="282" fill="#90B7E6" font-family="Segoe UI, Arial, sans-serif" font-size="18">vector / cube lanes</text>
  <rect x="1140" y="314" width="34" height="86" rx="10" fill="#26486F"/>
  <rect x="1188" y="288" width="34" height="112" rx="10" fill="#446EAA"/>
  <rect x="1236" y="332" width="34" height="68" rx="10" fill="#72D6D2"/>
  <rect x="1284" y="252" width="34" height="148" rx="10" fill="#FFC857"/>
  <path d="M1140 412H1318" stroke="#3B628F" stroke-width="2"/>
  <text x="1140" y="448" fill="#A7C4E6" font-family="Consolas, Menlo, monospace" font-size="18">AIC workload</text>
  <text x="720" y="684" text-anchor="middle" fill="#EAF2FF" font-family="Segoe UI, Arial, sans-serif" font-size="30" font-weight="700">Turn testcase uncertainty into source-backed evidence.</text>
</svg>
